<?xml version="1.0" encoding="UTF-8" standalone="no"?>
<!-- Created with Inkscape (http://www.inkscape.org/) -->

<svg
   xmlns:dc="http://purl.org/dc/elements/1.1/"
   xmlns:cc="http://creativecommons.org/ns#"
   xmlns:rdf="http://www.w3.org/1999/02/22-rdf-syntax-ns#"
   xmlns:svg="http://www.w3.org/2000/svg"
   xmlns="http://www.w3.org/2000/svg"
   xmlns:xlink="http://www.w3.org/1999/xlink"
   xmlns:sodipodi="http://sodipodi.sourceforge.net/DTD/sodipodi-0.dtd"
   xmlns:inkscape="http://www.inkscape.org/namespaces/inkscape"
   width="285"
   height="120"
   id="svg6146"
   version="1.1"
   inkscape:version="0.48.4 r9939"
   sodipodi:docname="New document 27">
  <defs
     id="defs6148">
    <linearGradient
       inkscape:collect="always"
       xlink:href="#linearGradient4518-4-9-1"
       id="linearGradient5096"
       gradientUnits="userSpaceOnUse"
       gradientTransform="matrix(0.72802385,0,0,0.62497959,-1.5191918,397.37724)"
       x1="192.18684"
       y1="1008.8248"
       x2="228.61342"
       y2="972.39374" />
    <linearGradient
       inkscape:collect="always"
       id="linearGradient4518-4-9-1">
      <stop
         style="stop-color:#36648b;stop-opacity:1;"
         offset="0"
         id="stop4520-8-5-3" />
      <stop
         style="stop-color:#36648b;stop-opacity:0;"
         offset="1"
         id="stop4522-8-4-8" />
    </linearGradient>
    <linearGradient
       inkscape:collect="always"
       xlink:href="#linearGradient4518-4-9"
       id="linearGradient5099"
       gradientUnits="userSpaceOnUse"
       gradientTransform="matrix(0.72802385,0,0,0.62497959,-3.2352418,396.8763)"
       x1="215.75827"
       y1="1052.7534"
       x2="227.54198"
       y2="1004.1794" />
    <linearGradient
       inkscape:collect="always"
       id="linearGradient4518-4-9">
      <stop
         style="stop-color:#36648b;stop-opacity:1;"
         offset="0"
         id="stop4520-8-5" />
      <stop
         style="stop-color:#36648b;stop-opacity:0;"
         offset="1"
         id="stop4522-8-4" />
    </linearGradient>
    <linearGradient
       inkscape:collect="always"
       xlink:href="#linearGradient4510-6"
       id="linearGradient5178"
       gradientUnits="userSpaceOnUse"
       gradientTransform="matrix(0.72802385,0,0,0.62497959,-4.7805718,397.51415)"
       x1="29.038778"
       y1="1031.0005"
       x2="86.201416"
       y2="991.00049" />
    <linearGradient
       inkscape:collect="always"
       id="linearGradient4510-6">
      <stop
         style="stop-color:#36648b;stop-opacity:1;"
         offset="0"
         id="stop4512-8" />
      <stop
         style="stop-color:#36648b;stop-opacity:0;"
         offset="1"
         id="stop4514-5" />
    </linearGradient>
    <linearGradient
       inkscape:collect="always"
       xlink:href="#linearGradient4502-1"
       id="linearGradient5105"
       gradientUnits="userSpaceOnUse"
       gradientTransform="matrix(0.72802385,0,0,0.62497959,-4.1099718,396.94923)"
       x1="92.691467"
       y1="979.15863"
       x2="130.9248"
       y2="928.08722" />
    <linearGradient
       inkscape:collect="always"
       id="linearGradient4502-1">
      <stop
         style="stop-color:#36648b;stop-opacity:1;"
         offset="0"
         id="stop4504-42" />
      <stop
         style="stop-color:#36648b;stop-opacity:0;"
         offset="1"
         id="stop4506-3" />
    </linearGradient>
    <linearGradient
       inkscape:collect="always"
       xlink:href="#linearGradient4494"
       id="linearGradient5108"
       gradientUnits="userSpaceOnUse"
       gradientTransform="matrix(0.72802385,0,0,0.62497959,-5.2198618,397.5417)"
       x1="398.04684"
       y1="1023.805"
       x2="300.72726"
       y2="848.44781" />
    <linearGradient
       inkscape:collect="always"
       id="linearGradient4494">
      <stop
         style="stop-color:#36648b;stop-opacity:1;"
         offset="0"
         id="stop4496" />
      <stop
         style="stop-color:#36648b;stop-opacity:0;"
         offset="1"
         id="stop4498" />
    </linearGradient>
  </defs>
  <sodipodi:namedview
     id="base"
     pagecolor="#ffffff"
     bordercolor="#666666"
     borderopacity="1.0"
     inkscape:pageopacity="0.0"
     inkscape:pageshadow="2"
     inkscape:zoom="0.98994949"
     inkscape:cx="375"
     inkscape:cy="289.68522"
     inkscape:document-units="px"
     inkscape:current-layer="layer1"
     showgrid="false"
     inkscape:window-width="1600"
     inkscape:window-height="838"
     inkscape:window-x="-8"
     inkscape:window-y="-8"
     inkscape:window-maximized="1" />
  <metadata
     id="metadata6151">
    <rdf:RDF>
      <cc:Work
         rdf:about="">
        <dc:format>image/svg+xml</dc:format>
        <dc:type
           rdf:resource="http://purl.org/dc/dcmitype/StillImage" />
        <dc:title></dc:title>
      </cc:Work>
    </rdf:RDF>
  </metadata>
  <g
     inkscape:label="Layer 1"
     inkscape:groupmode="layer"
     id="layer1"
     transform="translate(0,-932.36218)">
    <path
       style="fill:#36649c;fill-opacity:1;stroke:#000000;stroke-width:4.04722166;stroke-linecap:butt;stroke-linejoin:miter;stroke-miterlimit:4;stroke-opacity:1;stroke-dasharray:none;stroke-dashoffset:0"
       d="m 1.5180282,934.28296 0.7494,28.94462 4.13312,1.25002 3.8151698,0.33205 4.40562,0 c 0,0 0.0195,-0.34486 1.02193,0 1.00241,0.34487 3.60757,0.53398 4.61,0.87885 1.00242,0.34486 4.40563,2.05074 4.40563,2.05074 l 4.81438,2.07025 c 0,0 1.38987,0.87884 2.79326,0.87884 1.40339,0 4.61002,-0.17574 4.61002,-0.17574 l 3.02034,1.71876 3.40641,-0.35156 1.58966,-0.85934 3.61079,-1.36721 3.81518,-1.914 10.83238,-0.6836 3.61079,-0.17574 c 0,0 2.59347,-0.50718 3.99686,0.52729 1.40339,1.03453 1.80643,1.89506 3.61079,2.92959 1.80437,1.0346 3.02035,1.02303 3.02035,2.40236 0,1.37939 0.39776,2.93353 0.99921,4.14049 0.60146,1.20702 1.80964,3.63617 2.61158,3.80847 0.80193,0.1725 2.987321,2.9241 4.791679,4.6484 1.804358,1.7242 2.21061,2.9302 2.611583,3.9647 0.400965,1.0346 2.608376,4.3169 3.610796,5.3515 1.002412,1.0345 4.621709,2.9302 5.223156,3.9647 0.601456,1.0345 5.200448,5.5077 5.200448,5.5077 0,0 1.40478,4.3168 2.40719,5.3514 0.43438,0.4482 1.23958,1.7697 2.02114,3.0859 l 4.74627,-1.621 10.62799,-2.5977 9.22001,-0.5078 13.85274,0 c 0,0 10.02263,1.3805 10.42361,2.0702 0.40097,0.6896 13.21687,3.9648 13.21687,3.9648 l 6.63113,2.246 2.4072,0.7617 c 1.75455,-0.7688 3.65622,-1.6406 3.65622,-1.6406 0,0 4.6178,-2.2303 5.01877,-3.4373 0.40096,-1.207 2.61158,-2.9492 2.61158,-2.9492 0,0 6.80571,-2.4124 7.60764,-2.9296 0.80194,-0.5173 3.80807,-2.0675 4.61001,-2.9297 0.80193,-0.8621 1.61237,-1.3671 1.61237,-1.3671 l 2.99763,-1.3867 c 0,0 4.42123,-3.2684 5.22317,-3.6132 0.80194,-0.3448 2.99764,-1.2109 2.99764,-1.2109 l 4.01956,-0.5273 3.20202,-0.5078 4.8144,-0.1758 2.99763,-1.2109 3.81518,-1.2109 6.01799,-1.0351 4.20124,0 c 0,0 1.60525,-1.0223 2.40719,-1.3672 0.80195,-0.3448 3.80806,-1.5497 4.61001,-1.8945 0.80194,-0.3448 4.61001,-2.7733 4.61001,-2.7733 l 4.22394,-1.7188 4.61001,0 4.99606,1.2109 3.02035,-0.3515 1.79405,-1.0351 4.01956,-1.1914 3.6108,0.6836 4.31477,-1.6211 0,-46.40514 z M 285.61251,980.6881 z"
       id="rect5000-2-6"
       inkscape:connector-curvature="0"
       sodipodi:nodetypes="cccccssccscccccccccssscssssccccccccccccsccccccccccccccscccccccccccccc" />
    <path
       style="fill:url(#linearGradient5108);fill-opacity:1;stroke:#000000;stroke-width:4.04722166;stroke-linecap:butt;stroke-linejoin:miter;stroke-miterlimit:4;stroke-opacity:1;stroke-dasharray:none"
       d="m 285.61251,980.4596 -0.0455,0.059 -5.02792,1.8945 -3.61736,-0.6836 -4.02689,1.1914 -1.7973,1.0351 -3.02585,0.3515 -5.00516,-1.2109 -4.61841,0 -4.23164,1.7187 c 0,0 -3.815,2.4285 -4.61839,2.7734 -0.80341,0.3448 -3.815,1.5496 -4.61841,1.8945 -0.80339,0.3448 -2.41158,1.3671 -2.41158,1.3671 l -4.20888,0 -6.02895,1.0351 -3.82213,1.2109 -3.0031,1.2109 -4.82315,0.1758 -3.20786,0.5078 -4.02688,0.5273 c 0,0 -2.19971,0.866 -3.0031,1.2109 -0.8034,0.3448 -5.23267,3.6131 -5.23267,3.6131 l -3.0031,1.3866 c 0,0 -0.81191,0.5051 -1.61531,1.3672 -0.80339,0.8622 -3.81499,2.4123 -4.61839,2.9297 -0.80341,0.5172 -7.6215,2.9294 -7.6215,2.9294 0,0 -2.21464,1.7423 -2.61634,2.9492 -0.4017,1.207 -5.02791,3.4375 -5.02791,3.4375 0,0 -5.61232,2.5813 -6.41571,2.7537 -0.8034,0.1725 -6.64322,2.7733 -6.64322,2.7733 0,0 -3.40939,2.7444 -4.41364,3.2616 -1.00425,0.5174 -3.41262,2.0704 -3.41262,2.0704 l -1.00103,1.2109 -3.20786,1.8944 -4.23164,1.5625 -2.20681,1.8945 -6.62047,1.3671 9.03204,-0.1562 5.23268,0.5078 3.79937,1.7187 c 0,0 -0.5844,0.5212 -1.3878,1.2109 -0.8034,0.6897 -1.41054,-1.5478 -1.41054,1.2109 0,2.7586 0.20544,3.2811 1.41054,3.2811 1.2051,0 8.0324,-2.5842 10.44259,-1.8945 2.41019,0.6898 4.61841,1.3672 4.61841,1.3672 0,0 0.1873,-0.1719 2.79834,1.0351 2.61104,1.207 5.83982,2.5976 6.64321,2.5976 0.8034,0 0.18201,1.0351 0.18201,1.0351 l -3.0031,1.0156 -1.41054,0.7031 3.20785,0.1757 1.6153,1.0352 c 0,0 -2.81788,1.5529 -3.82212,2.0702 -1.00425,0.5172 -6.82522,2.0507 -6.82522,2.0507 l -4.36815,1.0156 116.30181,0 0,-73.6499 z"
       id="path3159"
       inkscape:connector-curvature="0" />
    <path
       style="fill:url(#linearGradient5105);fill-opacity:1;stroke:#000000;stroke-width:4.04722166;stroke-linecap:butt;stroke-linejoin:miter;stroke-miterlimit:4;stroke-opacity:1;stroke-dasharray:none"
       d="m 1.5180282,963.3312 0,38.8464 c 0.27541,0.4128 0.54601,0.8203 0.54601,0.8203 0,0 2.40836,1.0384 3.41262,1.2108 1.00424,0.1725 7.6253998,3.4474 7.8262498,3.9647 0.20086,0.5173 2.79834,3.2616 2.79834,3.2616 l 4.23164,1.7383 c 0,0 3.01482,1.1953 3.61737,2.4022 0.60255,1.207 4.6184,4.4921 4.6184,4.4921 0,0 2.1997,4.3168 3.0031,5.3514 0.8034,1.0345 2.02482,2.7537 2.02482,2.7537 l 2.79834,4.3164 -0.59152,2.578 -1.82006,3.1053 0,3.6133 c 0,0 1.01023,-1.0279 3.82212,0.3514 2.81189,1.3794 3.00908,0.3528 6.82523,2.4219 3.81613,2.069 7.23473,4.824 7.23473,4.824 l 0.20476,0.1759 4.00413,1.7186 4.6184,1.8944 1.93382,0.9375 78.171562,0 3.86763,-1.2499 4.80041,-1.3867 c 0,0 4.23233,-1.5401 5.43743,-2.4022 1.2051,-0.8621 2.41549,-0.1731 2.61634,-1.0352 0.20084,-0.8621 -0.40952,-1.2109 -0.40952,-1.2109 0,0 -3.61025,-2.4252 -4.41364,-2.5976 -0.80341,-0.1724 -2.20683,-0.6835 -2.20683,-0.6835 l -4.6184,-0.8594 2.38883,-2.0702 2.41158,-1.0352 0,-0.1757 c 0,0 -1.99173,-0.1731 -3.79937,-1.0352 -1.80764,-0.8621 -1.61991,-0.1663 -3.02586,-0.6835 -1.40594,-0.5173 -5.41467,-1.7187 -5.41467,-1.7187 l -4.82316,-1.914 -8.23577,-3.9648 -5.02792,-3.7889 c 0,0 -1.3885,-1.2019 -2.59359,-2.7538 -1.2051,-1.5518 -3.61806,-3.1058 -4.82315,-4.1405 -1.2051,-1.0344 -4.61841,-3.2811 -4.61841,-3.2811 0,0 -3.02264,-5.5083 -4.02688,-6.5428 -1.00425,-1.0345 -2.41158,-5.3514 -2.41158,-5.3514 0,0 -4.607371,-4.473 -5.209921,-5.5075 -0.602549,-1.0346 -4.228425,-2.9302 -5.232669,-3.9647 -1.004251,-1.0346 -3.215672,-4.3169 -3.617366,-5.3514 -0.401703,-1.0345 -0.8087,-2.2406 -2.616339,-3.9648 -1.807648,-1.7242 -3.997017,-4.4758 -4.800407,-4.6482 -0.8034,-0.1724 -2.01379,-2.60151 -2.61634,-3.80847 -0.60255,-1.20696 -1.00103,-2.7611 -1.00103,-4.14049 0,-1.37933 -1.2182,-1.36777 -3.02585,-2.4023 -1.80765,-1.03453 -2.21142,-1.89507 -3.61737,-2.92959 -1.40594,-1.03447 -4.00413,-0.52729 -4.00413,-0.52729 l -3.61737,0.17574 -10.8521,0.6836 -3.82213,1.914 -3.61737,1.36714 -1.59255,0.85935 -3.41261,0.35155 -3.02585,-1.71869 c 0,0 -3.21246,0.17574 -4.6184,0.17574 -1.40595,0 -2.79834,-0.87884 -2.79834,-0.87884 l -4.82316,-2.07025 c 0,0 -3.4094,-1.70588 -4.41365,-2.05074 -1.00425,-0.34487 -3.61415,-0.53398 -4.6184,-0.87885 -1.00425,-0.34486 -1.02378,0 -1.02378,0 l -4.4136398,0 -3.82213,-0.33205 -4.14063,-1.24996 z"
       id="path3155-2"
       inkscape:connector-curvature="0" />
    <path
       style="fill:url(#linearGradient5178);fill-opacity:1;stroke:#000000;stroke-width:4.04722166;stroke-linecap:butt;stroke-linejoin:miter;stroke-miterlimit:4;stroke-opacity:1;stroke-dasharray:none"
       d="m 1.5180282,1003.3103 0,50.7991 59.9254598,0 -1.41055,-0.6835 -4.6184,-1.8945 -4.00413,-1.7382 -0.20476,-0.1758 c 0,0 -3.41859,-2.7551 -7.23473,-4.8241 -3.81615,-2.0691 -4.01333,-1.023 -6.82523,-2.4023 -2.81189,-1.3794 -3.82212,-0.3515 -3.82212,-0.3515 l 0,-3.6131 1.82006,-3.1054 0.59152,-2.5975 -2.8211,-4.2968 c 0,0 -1.19867,-1.7389 -2.00206,-2.7734 -0.80341,-1.0346 -3.0031,-5.3318 -3.0031,-5.3318 0,0 -4.01585,-3.2851 -4.6184,-4.4921 -0.60255,-1.2069 -3.61737,-2.4022 -3.61737,-2.4022 l -4.23164,-1.7383 c 0,0 -2.59749,-2.7443 -2.79834,-3.2615 -0.20085,-0.5173 -6.8220098,-3.8119 -7.8262598,-3.9843 -0.95236,-0.1635 -3.07234,-1.0362 -3.29885,-1.1328 z"
       id="path3157-7"
       inkscape:connector-curvature="0" />
    <path
       style="fill:url(#linearGradient5099);fill-opacity:1;stroke:#000000;stroke-width:4.04722166;stroke-linecap:butt;stroke-linejoin:miter;stroke-miterlimit:4;stroke-opacity:1;stroke-dasharray:none"
       d="m 154.82709,1033.5827 -10.60185,0.2149 -9.16855,0.4296 4.25438,1.6602 c 0,0 4.00874,1.2014 5.41469,1.7187 1.40595,0.5172 1.2182,-0.1786 3.02584,0.6836 1.80765,0.862 3.82213,1.0351 3.82213,1.0351 l 0,0.1757 -2.41158,1.0352 -2.41158,2.0702 4.6184,0.8593 c 0,0 1.40342,0.5111 2.20682,0.6836 0.8034,0.1724 4.41365,2.5976 4.41365,2.5976 0,0 0.61036,0.3487 0.40951,1.2109 -0.20084,0.862 -1.41124,0.173 -2.61634,1.0351 -1.20509,0.8622 -5.41467,2.4023 -5.41467,2.4023 l -4.82316,1.3866 -4.11788,1.3281 27.18713,0 6.68872,-1.5429 c 0,0 5.82098,-1.5529 6.82523,-2.0702 1.00425,-0.5173 3.82213,-2.0702 3.82213,-2.0702 l -1.61531,-1.0352 -3.20786,-0.1758 1.3878,-0.6836 3.02585,-1.0351 c 0,0 0.59864,-1.0351 -0.20476,-1.0351 -0.80339,0 -4.00942,-1.3906 -6.62046,-2.5975 -2.61103,-1.207 -2.82109,-1.0156 -2.82109,-1.0156 0,0 -2.20822,-0.697 -4.61841,-1.3867 -2.41019,-0.6898 -9.23749,1.8944 -10.44259,1.8944 -1.2051,0 -1.41054,-0.5223 -1.41054,-3.2811 0,-2.7587 0.60714,-0.5212 1.41054,-1.2108 0.8034,-0.6898 1.41055,-1.1915 1.41055,-1.1915 l -3.82212,-1.7382 -3.59462,-0.3516 z"
       id="path3161-2-3"
       inkscape:connector-curvature="0" />
    <path
       style="fill:url(#linearGradient5096);fill-opacity:1;stroke:#000000;stroke-width:4.04722166;stroke-linecap:butt;stroke-linejoin:miter;stroke-miterlimit:4;stroke-opacity:1;stroke-dasharray:none"
       d="m 133.58439,1007.9307 -9.23681,0.5078 -10.64735,2.5976 -5.00516,1.6991 c 1.09379,1.8249 2.20683,3.8085 2.20683,3.8085 0,0 3.41329,2.2467 4.61839,3.2812 1.20509,1.0345 3.61806,2.5887 4.82316,4.1404 1.20509,1.5518 2.61634,2.7538 2.61634,2.7538 l 5.00517,3.789 8.23577,3.9842 0.61427,0.2343 9.12305,-0.4296 10.64735,-0.2148 -1.66081,-0.1563 -9.0548,0.1758 6.64322,-1.3867 2.20682,-1.8944 4.20889,-1.5429 3.20786,-1.914 1.02378,-1.1914 c 0,0 2.40837,-1.5531 3.41262,-2.0703 1.00424,-0.5173 4.41363,-3.2811 4.41363,-3.2811 0,0 5.81707,-2.5814 6.62047,-2.7538 0.32053,-0.069 1.44728,-0.5545 2.63909,-1.0742 l -2.45708,-0.7812 -6.64322,-2.246 c 0,0 -12.83924,-3.2751 -13.24093,-3.9647 -0.40171,-0.6898 -10.4426,-2.0703 -10.4426,-2.0703 l -13.87795,0 z"
       id="path3161-2-3-7"
       inkscape:connector-curvature="0" />
    <text
       xml:space="preserve"
       style="font-size:56.7570076px;font-style:oblique;font-variant:normal;font-weight:300;font-stretch:normal;text-align:start;line-height:87.99999952%;letter-spacing:0px;word-spacing:0px;writing-mode:lr-tb;text-anchor:start;fill:#00ffff;fill-opacity:0.11111109;stroke:#ffffff;stroke-width:4.12978411;stroke-miterlimit:4;stroke-opacity:1;stroke-dasharray:none;font-family:Open Sans Light;-inkscape-font-specification:'Open Sans Light, Light Oblique'"
       x="295.47238"
       y="921.39771"
       id="text5087"
       sodipodi:linespacing="88%"
       transform="scale(0.93387641,1.0708055)"><tspan
         sodipodi:role="line"
         x="295.47238"
         y="921.39771"
         style="font-size:56.7570076px;font-style:oblique;font-variant:normal;font-weight:800;font-stretch:normal;text-align:end;line-height:87.99999952%;writing-mode:lr-tb;text-anchor:end;fill:none;stroke:#ffffff;stroke-width:4.12978411;stroke-miterlimit:4;stroke-opacity:1;stroke-dasharray:none;font-family:Open Sans Extrabold;-inkscape-font-specification:'Open Sans Extrabold, Ultra-Bold Oblique'"
         id="tspan6133">LSD</tspan><tspan
         sodipodi:role="line"
         x="295.47238"
         y="971.34387"
         style="font-size:56.7570076px;font-style:oblique;font-variant:normal;font-weight:300;font-stretch:normal;text-align:end;line-height:87.99999952%;writing-mode:lr-tb;text-anchor:end;fill:#ffffff;fill-opacity:1;stroke:#ffffff;stroke-width:4.12978411;stroke-miterlimit:4;stroke-opacity:1;stroke-dasharray:none;font-family:Open Sans Light;-inkscape-font-specification:'Open Sans Light, Light Oblique'"
         id="tspan6142">TopoTools</tspan></text>
  </g>
</svg>
